<?xml version="1.0" encoding="utf-8"?>
<!-- Generator: Adobe Illustrator 26.0.1, SVG Export Plug-In . SVG Version: 6.00 Build 0)  -->
<svg version="1.1" xmlns="http://www.w3.org/2000/svg" xmlns:xlink="http://www.w3.org/1999/xlink" x="0px" y="0px"
	 viewBox="0 0 700 700" style="enable-background:new 0 0 700 700;" xml:space="preserve">
<style type="text/css">
	.st0{fill:none;stroke:#FFFFFF;stroke-width:7;stroke-miterlimit:10;}
	.st1{fill:#FFFFFF;stroke:#000000;stroke-miterlimit:10;}
</style>
<g id="Capa_2">
	<path class="st0" d="M562.9,635.8H125.8c-51.9,0-94-42.1-94-94v-383c0-51.9,42.1-94,94-94h437.1c51.9,0,94,42.1,94,94v383
		C656.9,593.7,614.8,635.8,562.9,635.8z"/>
</g>
<g id="Capa_1">
	<g>
		<path class="st1" d="M531.1,253.2l-333.8-22l-12.9-31.7c0-0.1-0.1-0.2-0.2-0.4c-0.4-0.8-0.8-1.4-1.2-2.1c-0.4-0.6-0.7-1.3-1.2-1.8
			c-0.5-0.5-1.1-0.8-1.6-1.3c-0.7-0.5-1.3-1.1-2-1.4c-0.6-0.2-1.2-0.4-1.8-0.5c-0.9-0.2-1.8-0.5-2.7-0.6c-0.2,0-0.2,0-0.3,0l-77-33
			c-6.4,0-11.7,5.2-11.7,11.7s5.2,11.7,11.7,11.7l61.6,28l20.2,44.6l75.7,227.2c-6.4,6.4-10.5,15.2-10.5,25c0,19.2,15.8,35,35,35
			c15.2,0,28-9.8,32.9-23.3h123c4.8,13.5,17.6,23.3,32.9,23.3c19.2,0,35-15.8,35-35c0-19.2-15.8-35-35-35c-15.2,0-28,9.8-32.9,23.3
			h-123c-4.8-13.5-17.6-23.3-32.9-23.3c-1.1,0-2.1,0.2-3.1,0.4l-7.9-23.7l206.1,8c4.7,0,8.9-2.8,10.7-7l57.7-179.7
			c1.6-3.6,1.3-7.8-0.9-11.1C538.6,255.1,535,253.2,531.1,253.2L531.1,253.2z"/>
	</g>
</g>
</svg>
